<?xml version="1.0" standalone="no"?>
<!DOCTYPE svg PUBLIC "-//W3C//DTD SVG 20010904//EN"
 "http://www.w3.org/TR/2001/REC-SVG-20010904/DTD/svg10.dtd">
<svg version="1.0" xmlns="http://www.w3.org/2000/svg"
 width="170.000000pt" height="85.000000pt" viewBox="0 0 170.000000 85.000000"
 preserveAspectRatio="xMidYMid meet">

<g transform="translate(0.000000,85.000000) scale(0.100000,-0.100000)"
fill="#000000" stroke="none">
<path d="M122 666 c-34 -33 -62 -64 -62 -68 0 -5 18 -8 40 -8 22 0 40 -2 40
-4 0 -3 -21 -25 -46 -49 l-47 -43 2 -105 c1 -83 5 -109 20 -129 18 -25 20 -25
135 -21 l116 3 0 -36 c0 -21 5 -46 10 -57 10 -18 13 -17 47 14 83 73 104 95
40 43 -38 -31 -73 -54 -78 -51 -5 4 -9 26 -9 51 l0 44 -125 0 c-150 0 -145 -5
-144 142 l1 103 53 45 c29 25 54 48 54 53 1 4 -23 7 -51 7 l-53 1 60 54 60 55
73 0 c46 0 71 4 67 10 -3 6 -36 10 -73 9 l-67 -1 -63 -62z"/>
<path d="M395 669 l-50 -50 -6 43 c-6 41 -6 40 -7 -17 -2 -61 -2 -61 -67 -125
-49 -48 -65 -71 -64 -90 l2 -25 4 26 c2 14 24 45 49 70 l44 43 0 -42 c0 -40
-2 -42 -29 -42 -26 0 -30 -4 -33 -32 -2 -21 -8 -32 -16 -30 -8 1 -11 -2 -7 -8
3 -5 24 -10 46 -10 l39 0 0 -45 c0 -41 2 -45 24 -45 22 0 25 5 28 43 3 38 6
42 31 45 25 3 27 7 27 48 0 40 -2 44 -25 44 -22 0 -25 4 -25 35 0 19 -5 44
-12 55 -16 25 -1 51 58 104 l44 39 0 -203 c0 -196 1 -202 20 -197 10 3 21 0
24 -7 3 -7 5 -6 5 2 1 8 -8 16 -19 19 -19 5 -20 14 -20 204 0 110 -4 199 -8
199 -4 0 -30 -23 -57 -51z"/>
<path d="M590 460 c0 -93 4 -150 10 -150 6 0 10 26 10 57 0 65 7 64 24 -4 8
-29 19 -49 28 -51 15 -3 15 2 1 55 -12 45 -13 65 -4 89 27 76 3 154 -49 154
-19 0 -20 -7 -20 -150z m52 73 c7 -25 -1 -43 -18 -43 -9 0 -14 11 -14 30 0 33
24 42 32 13z"/>
<path d="M712 598 c-20 -20 -14 -95 13 -148 28 -56 32 -90 10 -90 -8 0 -15 7
-15 15 0 22 -18 18 -25 -5 -8 -24 18 -70 40 -70 22 0 45 41 45 83 0 22 -12 62
-30 98 -31 60 -32 92 -3 68 22 -19 37 9 19 36 -16 24 -37 30 -54 13z"/>
<path d="M910 608 c-1 -2 -13 -69 -29 -150 -22 -118 -25 -148 -14 -148 7 0 16
14 20 31 5 27 9 30 37 27 25 -2 32 -8 34 -30 2 -16 9 -28 18 -28 18 0 19 -9
-13 158 -18 97 -31 142 -40 142 -7 0 -13 -1 -13 -2z m29 -170 c0 -10 -6 -18
-14 -18 -16 0 -21 44 -8 77 6 15 9 13 14 -12 4 -16 7 -38 8 -47z"/>
<path d="M1046 591 c-60 -67 -40 -269 29 -287 17 -4 32 -1 44 10 20 18 41 79
41 120 0 23 -4 26 -35 26 -30 0 -35 -3 -35 -24 0 -16 7 -26 21 -29 17 -5 19
-9 9 -26 -6 -12 -21 -21 -34 -21 -30 0 -46 36 -46 103 0 77 38 121 70 82 28
-33 49 2 24 41 -20 29 -63 32 -88 5z"/>
<path d="M1183 594 c-3 -8 -3 -69 -1 -135 4 -96 9 -123 23 -139 23 -26 40 -25
59 2 13 18 16 51 16 155 0 82 -4 133 -10 133 -6 0 -10 -36 -10 -87 0 -108 -9
-163 -25 -163 -21 0 -25 25 -25 141 0 68 -4 109 -10 109 -6 0 -13 -7 -17 -16z"/>
<path d="M1320 461 c0 -94 4 -151 10 -151 6 0 10 36 10 87 0 48 4 83 8 77 5
-5 19 -44 32 -86 38 -124 50 -106 50 73 0 116 -3 150 -12 147 -9 -3 -14 -33
-17 -89 l-4 -84 -26 84 c-42 129 -51 118 -51 -58z"/>
<path d="M1498 593 c-42 -48 -49 -183 -14 -251 20 -40 59 -52 86 -27 22 19 40
74 40 118 0 24 -3 27 -35 27 -31 0 -35 -3 -35 -25 0 -18 5 -25 20 -25 23 0 24
-4 10 -31 -28 -51 -80 -3 -80 74 0 80 38 130 70 92 7 -8 16 -15 20 -15 17 0
20 34 5 56 -19 29 -65 32 -87 7z"/>
</g>
</svg>
